<svg width="373" height="350" viewBox="0 0 373 350" fill="none" xmlns="http://www.w3.org/2000/svg">
<g clip-path="url(#clip0_22923_6970)">
<path d="M0 101.21C0 101.21 54.44 133.89 96.2 143.36C137.96 152.83 183.04 160.49 183.04 160.49L141.41 349.78L219.52 159.47C219.52 159.47 247.14 156.53 280.6 146.86C314.06 137.19 372.17 85.15 372.17 85.15C372.17 85.15 266.34 137.61 221.76 132.88C177.18 128.15 175.91 119.43 175.91 119.43C175.91 119.43 184.65 88.59 193.23 68.84C201.8 49.08 214.78 0 214.78 0C214.78 0 171.83 84.83 146.37 105.19C120.91 125.56 106.86 124.31 77.64 121.21C47.95 118.07 0 101.21 0 101.21Z" fill="black"/>
<path d="M102.66 111.85C115.4 115.59 128.42 109.44 131.74 98.1199C135.06 86.7999 127.43 74.5899 114.69 70.8499C101.95 67.1099 88.9299 73.2599 85.6099 84.5799C82.2899 95.8999 89.9199 108.11 102.66 111.85Z" fill="black"/>
</g>
<defs>
<clipPath id="clip0_22923_6970">
<rect width="372.16" height="349.78" fill="white"/>
</clipPath>
</defs>
</svg>
