<svg width="814" height="349" viewBox="0 0 814 349" fill="none" xmlns="http://www.w3.org/2000/svg">
<g clip-path="url(#clip0_22923_6959)">
<mask id="mask0_22923_6959" style="mask-type:luminance" maskUnits="userSpaceOnUse" x="0" y="0" width="814" height="349">
<path d="M813.71 0H0V348.93H813.71V0Z" fill="white"/>
</mask>
<g mask="url(#mask0_22923_6959)">
<path d="M65.7799 311.13L69.1499 295.25H33.3199L36.6899 279.51H14.6299L-0.120117 348.93H21.9399L29.9499 311.13H65.7799ZM86.4299 272.49L90.3599 253.8H19.9699L16.0399 272.49H86.4299ZM104.98 348.93L125.07 253.81H103.71L83.6199 348.93H104.98ZM177.48 272.49H200.66L204.59 253.8H137.01L133.08 272.49H156.12L139.96 348.92H161.32L177.48 272.49ZM279.06 348.93L299.15 253.81H279.2L267.26 310.57L236.07 253.81H215.98L195.89 348.93H215.7L228.91 286.55L264.88 348.93H279.07H279.06ZM364.77 348.93L368.7 329.96H320.23L324.44 310.01H359.43L362.66 294.84H327.67L331.04 279.38H308.98L294.23 348.93H364.76H364.77ZM380.92 272.36L384.85 253.81H314.32L310.39 272.36H380.92ZM440.21 348.93C452.29 348.93 457.49 343.59 459.88 332.35L465.36 306.36C465.64 304.96 465.78 303.55 465.78 302.43C465.78 296.39 462.41 292.88 454.68 292.88H416.6C414.35 292.88 413.51 292.32 413.51 290.77C413.51 290.21 413.65 289.65 413.79 288.94L416.46 276.43C417.16 273.06 418.29 271.93 421.24 271.93H471.68L475.47 253.81H416.32C403.96 253.81 398.9 259.15 396.51 270.39L391.31 294.98C391.03 296.53 390.89 297.79 390.89 299.05C390.89 304.95 394.26 308.46 401.85 308.46H439.37C442.04 308.46 443.02 309.16 443.02 310.99C443.02 311.41 443.02 311.97 442.88 312.54L440.07 325.75C439.37 329.26 437.96 330.39 434.59 330.39H383.87L379.94 348.94H440.22L440.21 348.93ZM530.98 348.93C543.06 348.93 548.26 343.59 550.65 332.35L556.13 306.36C556.41 304.96 556.55 303.55 556.55 302.43C556.55 296.39 553.18 292.88 545.45 292.88H507.37C505.12 292.88 504.28 292.32 504.28 290.77C504.28 290.21 504.42 289.65 504.56 288.94L507.23 276.43C507.93 273.06 509.06 271.93 512.01 271.93H562.45L566.24 253.81H507.09C494.73 253.81 489.67 259.15 487.28 270.39L482.08 294.98C481.8 296.53 481.66 297.79 481.66 299.05C481.66 304.95 485.03 308.46 492.62 308.46H530.13C532.8 308.46 533.78 309.16 533.78 310.99C533.78 311.41 533.78 311.97 533.64 312.54L530.83 325.75C530.13 329.26 528.72 330.39 525.35 330.39H474.63L470.7 348.94H530.98V348.93Z" fill="black"/>
</g>
<path d="M441.39 98.7802C441.39 98.7802 495.46 132.07 537.1 142.01C578.75 151.95 623.74 160.12 623.74 160.12L579.98 348.93L660.24 159.51C660.24 159.51 687.89 156.88 721.45 147.59C755.02 138.3 813.71 86.9102 813.71 86.9102C813.71 86.9102 707.3 138.17 662.78 132.94C618.25 127.71 617.08 118.97 617.08 118.97C617.08 118.97 626.17 88.2302 634.97 68.5802C643.77 48.9302 657.3 -0.00976562 657.3 -0.00976562C657.3 -0.00976562 613.4 84.3302 587.71 104.4C562.02 124.48 547.99 123.07 518.81 119.64C489.15 116.16 441.4 98.7702 441.4 98.7702L441.39 98.7802Z" fill="black"/>
<path d="M543.92 110.58C556.62 114.46 569.71 108.46 573.16 97.1803C576.61 85.9003 569.12 73.6003 556.42 69.7203C543.72 65.8403 530.63 71.8403 527.18 83.1203C523.73 94.4103 531.23 106.7 543.92 110.58Z" fill="black"/>
<path d="M85.0299 220.35H47.5799L61.7199 153.38H42.8699L25.1399 237.34H81.4399L85.0399 220.35H85.0299ZM109.58 237.34L122.85 174.59H105.49L92.2199 237.34H109.58ZM124.58 167.15L128.55 148.3H111.06L107.09 167.15H124.57H124.58ZM140.58 237.34L151 188.23H166.5L169.35 174.59H153.85L155.83 165.04C156.33 162.68 157.32 161.82 159.55 161.82H172.57L175.42 148.3H153.84C145.78 148.3 141.32 152.15 138.96 162.69L123.21 237.34H140.57H140.58ZM227.88 237.34L230.86 223.08H188.57C186.46 223.08 185.72 222.71 185.72 221.22C185.72 220.72 185.84 220.1 185.97 219.36L191.8 192.33C192.42 189.6 193.04 188.86 195.89 188.86H220.82C222.8 188.86 223.42 189.36 223.42 190.6C223.42 191.1 223.42 191.59 223.3 192.21L221.44 200.64H196.14L194.03 211.06H235.82L241.03 186.38C241.4 184.64 241.53 183.16 241.53 181.79C241.53 176.95 239.05 174.6 232.73 174.6H190.32C181.27 174.6 177.55 178.44 175.81 186.88L167.75 225.08C167.38 226.94 167.13 228.55 167.13 229.92C167.13 235 169.98 237.36 177.05 237.36H227.9L227.88 237.34ZM301.3 203.98L304.28 189.97H272.66L275.64 176.08H256.17L243.15 237.34H262.62L269.69 203.98H301.31H301.3ZM319.53 169.88L323 153.39H260.87L257.4 169.88H319.53ZM366.28 237.34C375.33 237.34 378.93 233.5 380.79 225.06L388.85 186.86C389.22 185 389.47 183.39 389.47 182.02C389.47 176.94 386.74 174.58 379.55 174.58H336.89C327.96 174.58 324.24 178.42 322.5 186.86L314.44 225.06C314.07 226.92 313.82 228.53 313.82 229.9C313.82 234.98 316.67 237.34 323.62 237.34H366.28ZM364.79 218.61C364.29 221.09 363.18 221.96 360.2 221.96H335.65C333.67 221.96 332.92 221.46 332.92 220.22C332.92 219.72 333.04 219.23 333.17 218.61L338.5 193.06C339 190.33 339.86 189.59 342.47 189.59H367.02C369.38 189.59 370.37 190.09 370.37 191.57C370.37 191.94 370.25 192.44 370.12 193.06L364.79 218.61ZM407.95 237.34L417.25 193.07C417.87 190.34 418.99 189.6 421.47 189.6H446.52L449.74 174.59H431.51C426.05 174.59 422.33 176.7 419.23 181.41L420.72 174.59H403.85L390.58 237.34H407.94H407.95ZM502.32 237.34L505.54 221.72H470.2C468.09 221.72 467.35 221.22 467.35 219.86C467.35 219.36 467.47 218.87 467.6 218.25L472.93 193.2C473.55 190.47 474.29 189.85 477.02 189.85H512.36L515.58 174.6H471.31C462.38 174.6 458.66 178.44 456.92 186.88L448.86 225.08C448.49 226.94 448.24 228.55 448.24 229.92C448.24 235 451.09 237.36 458.04 237.36H502.31L502.32 237.34ZM575.61 237.34L578.59 223.08H536.3C534.19 223.08 533.45 222.71 533.45 221.22C533.45 220.72 533.57 220.1 533.7 219.36L539.53 192.33C540.15 189.6 540.77 188.86 543.62 188.86H568.55C570.53 188.86 571.15 189.36 571.15 190.6C571.15 191.1 571.15 191.59 571.03 192.21L569.17 200.64H543.87L541.76 211.06H583.55L588.76 186.38C589.13 184.64 589.26 183.16 589.26 181.79C589.26 176.95 586.78 174.6 580.46 174.6H538.05C529 174.6 525.28 178.44 523.54 186.88L515.48 225.08C515.11 226.94 514.86 228.55 514.86 229.92C514.86 235 517.71 237.36 524.78 237.36H575.63L575.61 237.34Z" fill="black"/>
</g>
<defs>
<clipPath id="clip0_22923_6959">
<rect width="813.71" height="348.93" fill="white"/>
</clipPath>
</defs>
</svg>
